<?xml version="1.0" encoding="utf-8"?>
<!-- Generator: Adobe Illustrator 28.0.0, SVG Export Plug-In . SVG Version: 6.00 Build 0)  -->
<svg version="1.1" id="Layer_1" xmlns="http://www.w3.org/2000/svg" xmlns:xlink="http://www.w3.org/1999/xlink" x="0px" y="0px"
	 viewBox="0 0 519.5 170.2" style="enable-background:new 0 0 519.5 170.2;" xml:space="preserve">
<polygon fill="white" points="406.2,72.6 401.5,89 434.4,89 429.3,106.7 396.4,106.7 387.6,137.5 366.7,137.5 390.4,54.9 449,54.9 444,72.6 "/>
<path fill="white" d="M437.1,118.2c0.3-1.2,1.8-6.1,2-6.5l20.7,0l-0.9,3.1c-1.3,4.5-0.1,6.1,4.7,6.1h4.2c4.8,0,6.9-1.6,8.1-6.1
	c0,0,0.7-2.5,0.7-2.6c0.8-2.9-0.1-4.4-2.7-5c-7.4-1.8-16.3-4.1-19.4-5.2c-2.8-0.9-5.5-2.3-7.1-4.7c-2.3-3.4-1.8-8.2-0.5-12.7l3-10.4
	c3.9-13.6,13.1-20.5,27-20.5h16.4c13.9,0,19,7,15.1,20.4c-0.3,1.2-1.7,5.9-1.9,6.3h-20.7l0.8-2.9c1.3-4.6,0.1-6.1-4.6-6.1h-3.6
	c-5,0-7.2,1.6-8.5,6.1c0,0-0.6,2.1-0.6,2.1c-0.9,3.1,0.1,4.3,2.9,5c3.7,0.8,16.8,4.2,20.2,5.3c2.8,0.9,5.3,2.5,6.6,5
	c1.9,3.4,1.2,8.1,0,12.4l-3.1,10.7c-3.9,13.6-13,20.5-26.9,20.5h-16.7C438.4,138.7,433.2,131.7,437.1,118.2"/>
<path fill="white" d="M251.2,138.7H268c13.9,0,23-7,26.9-20.5c0.3-0.9,1.7-6,1.7-6.4h-20.7l-0.9,3.1c-1.3,4.5-3.4,6.1-8.1,6.1h-4.3
	c-4.8,0-5.9-1.6-4.6-6.1l10.7-37.2c1.3-4.6,3.4-6.1,8.1-6.1h4.3c4.8,0,5.9,1.5,4.6,6.1l-0.8,2.9h20.7c0.3-0.5,1.7-5.4,1.9-6.3
	c3.9-13.4-1.2-20.4-15.1-20.4h-16.8c-13.9,0-23,7-26.9,20.5l-12.6,43.9C232.2,131.7,237.3,138.7,251.2,138.7"/>
<path fill="white" d="M319.4,138.7h16.8c13.9,0,23-7,26.9-20.5c0.3-0.9,1.7-6,1.7-6.4H344l-0.9,3.1c-1.3,4.5-3.4,6.1-8.1,6.1h-4.3
	c-4.8,0-5.9-1.6-4.6-6.1l10.7-37.2c1.3-4.6,3.4-6.1,8.1-6.1h4.3c4.8,0,5.9,1.5,4.6,6.1l-0.8,2.9h20.7c0.3-0.5,1.7-5.4,1.9-6.3
	c3.9-13.4-1.2-20.4-15.1-20.4h-16.8c-13.9,0-23,7-26.9,20.5l-12.6,43.9C300.4,131.7,305.4,138.7,319.4,138.7"/>
<path fill="white" d="M238.5,63.3l-24.1-27.4l-3.9,4.7l-5.4-3.9c0.4-0.5,0.8-1.1,1.2-1.4l2.4-3.2c1.7-2.2,1.4-5.4-0.4-7.1
	c-0.7-0.5-1.4-0.9-2.2-1.1c-2.4-0.4-7.5,1.7-12.8,4.2L163.1,6.5c-1.8-1.2-4.2-1.2-6.2-0.3l-54.6,25.9l10.3-0.1L90.8,46.6l8.4-0.3
	c0,0-39.1,23.4-44.1,27c-3.4,2.4-7.1,4.6-9.9,7.8c-2,2.4-3.6,5.7-4.7,8.4c-4.2,9-6.3,17.8-6.3,17.8S42.5,99,44.5,99
	s4.2,15.7-2.5,22.1c-6.7,6.5-15,12.1-16.6,17.6c-1.1,3.7-0.7,14.5-0.4,21.1c-9.6,0.5-15.3,1.1-15.3,1.7c0,1.7,45.5,3.2,101.8,3.2
	c56.2,0,101.8-1.4,101.8-3.2c0-0.8-7.6-1.4-20.7-2c-14-17.6-24-31.1-12.9-54.8c0,0-0.3,3.2,0.1,7.4c0.4,3.7,1.2,8.3,3,12.4
	c4.2,9,15.9,22.4,15.9,22.4l0.9-7.5c0.4-2.9,1.4-5.7,3.3-7.9c2.2-2.8,5.4-4.7,9-5.5l9.7-2.2c1.2-0.3,2.2-1.2,2.5-2.4
	c2.5-8.4,12.5-43.6,15.4-53.6C240,66.2,239.6,64.5,238.5,63.3 M155.8,158.6l3.3-4.1L142,136.3l-2.1,22.2c-9-0.1-18.4-0.1-28.3-0.1
	c-7.4,0-14.5,0-21.5,0.1c0.1-4.7,0.3-25.7-2.9-28.7c-3.8,4.9-10,10.3-19.7,14.5c1.8,3.2,7.1,11.7,8.7,14.3
	c-14,0.1-26.5,0.4-36.7,0.8c0.8-1.4,1.8-4.2,2.1-4.7c1.1-2,2.1-3.9,3.6-5.8c3.7-4.6,9.7-5.5,15-7.4c6.3-2.4,12.4-5.4,17.6-9.7
	c1.4-1.2,2.8-2.5,3.9-3.9c1.7-2.1,3-4.3,3.9-6.8c1.6-4.2,1.6-9.2,0.5-14.1c-1.1-4.9-3.3-9.6-5.8-14.1c3.4,3.9,6.6,8.2,8.8,13
	c1.1,2.5,2,5.1,2.5,7.9c0.5,2.8,0.5,5.5,0.1,8.4c6.1,4.1,22.5,6.5,44.8,8.3c-0.1-0.9-0.1-1.7-0.1-2.6c-0.1-1.8,0-3.7,0.1-5.5
	c0.3-3.7,1.1-7.2,2.1-10.8c1.2-3.4,2.8-6.7,4.7-9.6c2-2.9,4.3-5.7,6.8-7.9c-2.1,2.8-3.8,5.8-5.1,8.8c-1.3,3.2-2.2,6.3-2.6,9.6
	c-0.4,3.3-0.5,6.6-0.1,9.7c0,0.5,0.3,1.4,0.5,2.6c0.8,3.6,2.4,6.7,4.7,9.5l21.9,24.6C164.9,158.8,160.4,158.8,155.8,158.6 M193,72.7
	c0,0-0.4,0.1-1.2-0.4c-5.5-3.3-17.9-20.9-18.7-26.6c-0.1-0.9,0.7-3.2,7.8-8c1.6-1.1,3.2-2.1,4.9-3c2.2-1.3,4.5-2.5,6.8-3.7
	c2.7-1.4,5.5-2.8,8.4-3.8c0.9-0.3,1.9-0.6,2.8-0.8c1-0.3,2.1-0.4,3,0.3c1.1,0.9,1.1,2.8,0.1,4.1l-2.4,3.2c-7.2,9.5-9.7,13-9.5,14.7
	c0.1,0.9,0.9,1.7,2.9,3.6c2.6,2.5,7.1,6.8,5.8,9.6C201.1,66.8,197.2,70.8,193,72.7 M212.6,92.8c2.6,0.7,7-0.8,7-0.8
	s-7.6,7.1-9.2,6.2c-1.6-0.9-5.4-4.5-6.8-12.1c-1.4-7.6,1.6-15.3,1.6-15.3l16.5,18.6l-13.8-8.7C207.7,80.7,209.9,92.2,212.6,92.8"/>
<g>
	<path fill="white" d="M236.3,159.1l-0.7,2.4h-10.9l4.6-16h2.8l-3.9,13.6H236.3z"/>
	<path fill="white" d="M255.6,148h-5.1l-3.9,13.6h-2.8l3.9-13.6h-5.1l0.7-2.4h13L255.6,148z"/>
	<path fill="white" d="M270.4,159.1l-0.7,2.4h-10.9l4.6-16h2.8l-3.9,13.6H270.4z"/>
	<path fill="white" d="M287.9,154.2l0.1-0.3c0.6-2,1.3-2.5,3.6-2.5h0c2.3,0,2.7,0.5,2.1,2.5l-0.1,0.3c-0.6,2-1.3,2.5-3.6,2.5h0
		C287.7,156.7,287.3,156.2,287.9,154.2z"/>
	<path fill="white" d="M320.6,159.1l-0.7,2.4H309l4.6-16h2.8l-3.9,13.6H320.6z"/>
	<path fill="white" d="M342.9,149.4l-2.4,8.4c-0.8,2.8-2.5,4-5.4,4h-4.3c-2.9,0-3.9-1.3-3.1-4l2.4-8.4c0.8-2.8,2.5-4.1,5.4-4.1h4.3
		C342.7,145.3,343.7,146.6,342.9,149.4z M338.3,147.7h-2.7c-1.7,0-2.4,0.5-2.8,2.1l-2.1,7.5c-0.4,1.5,0,2.1,1.6,2.1h2.7
		c1.7,0,2.4-0.5,2.8-2.1l2.1-7.5C340.4,148.3,340,147.7,338.3,147.7z"/>
	<path fill="white" d="M360.7,149.9l0-0.2c0.4-1.5,0-2-1.6-2h-2.7c-1.7,0-2.4,0.5-2.8,2.1l-2.1,7.5c-0.4,1.5,0,2.1,1.6,2.1h2.7
		c1.7,0,2.4-0.5,2.8-2l0.6-2.1h-4.3l0.7-2.4h7.1l-1.4,5c-0.8,2.7-2.5,4-5.4,4h-4.3c-2.9,0-3.9-1.3-3.1-4l2.4-8.4
		c0.8-2.8,2.5-4.1,5.4-4.1h4.3c2.9,0,3.9,1.3,3.1,4l-0.1,0.2L360.7,149.9z"/>
	<path fill="white" d="M373,145.5h2.8l-4.6,16h-2.8L373,145.5z"/>
	<path fill="white" d="M380.4,157.7c0-0.2,0.1-0.2,0.1-0.2l2.9-0.3l0,0.2c-0.4,1.5,0,2,1.7,2h2.8c1.6,0,2.4-0.5,2.8-2.1l0.1-0.4
		c0.4-1.2,0-1.6-1.7-1.8l-3.7-0.6c-2.7-0.4-3.4-1.4-2.8-3.7l0.4-1.4c0.8-2.8,2.5-4.1,5.4-4.1h4.2c2.9,0,3.9,1.3,3.1,4l-0.1,0.2
		l-2.9,0.3l0-0.2c0.4-1.5,0-2-1.6-2h-2.6c-1.7,0-2.4,0.5-2.8,2.1l-0.1,0.3c-0.4,1.3-0.1,1.6,1.7,1.9l3.7,0.6
		c2.7,0.4,3.4,1.4,2.7,3.7l-0.4,1.5c-0.8,2.8-2.5,4-5.4,4h-4.3C380.6,161.8,379.6,160.5,380.4,157.7z"/>
	<path fill="white" d="M415.5,148h-5.1l-3.9,13.6h-2.8l3.9-13.6h-5.1l0.7-2.4h13L415.5,148z"/>
	<path fill="white" d="M423.3,145.5h2.8l-4.6,16h-2.8L423.3,145.5z"/>
	<path fill="white" d="M430.8,157.7l2.4-8.4c0.8-2.8,2.5-4.1,5.4-4.1h4.3c2.9,0,3.9,1.3,3.1,4l-0.1,0.2l-2.9,0.3l0-0.2c0.4-1.5,0-2-1.6-2h-2.7
		c-1.7,0-2.4,0.5-2.8,2.1l-2.1,7.5c-0.4,1.5,0,2.1,1.6,2.1h2.7c1.7,0,2.4-0.5,2.8-2l0-0.2l2.7,0.3l-0.1,0.2c-0.8,2.7-2.5,4-5.4,4
		h-4.3C431,161.8,430,160.5,430.8,157.7z"/>
	<path fill="white" d="M451.2,157.7c0-0.2,0.1-0.2,0.1-0.2l2.9-0.3l0,0.2c-0.4,1.5,0,2,1.7,2h2.8c1.6,0,2.4-0.5,2.8-2.1l0.1-0.4
		c0.4-1.2,0-1.6-1.7-1.8l-3.7-0.6c-2.7-0.4-3.4-1.4-2.8-3.7l0.4-1.4c0.8-2.8,2.5-4.1,5.4-4.1h4.2c2.9,0,3.9,1.3,3.1,4l-0.1,0.2
		l-2.9,0.3l0-0.2c0.4-1.5,0-2-1.6-2h-2.6c-1.7,0-2.4,0.5-2.8,2.1l-0.1,0.3c-0.4,1.3-0.1,1.6,1.7,1.9l3.7,0.6
		c2.7,0.4,3.4,1.4,2.7,3.7l-0.4,1.5c-0.8,2.8-2.5,4-5.4,4h-4.3C451.4,161.8,450.4,160.5,451.2,157.7z"/>
</g>
</svg>
